<svg xmlns="http://www.w3.org/2000/svg" width="1178" height="1160" viewBox="0 0 1178 1160">
    <g fill="none" fill-rule="evenodd">
        <g stroke="#4A4A4A" stroke-width=".5">
            <g>
                <path d="M490.946 739.209c2.28 3.5 4.92 8.39.83 10.78-10.76 6.28-22.41 11.03-34.49 14.09-10.42 2.66-21.56 4.71-32.35 4.51-2.04-.04-4.12-.18-6.03-.9-4.08-1.55-5.19-5.03-5.06-9.06.38-11.82 2.33-23.61 5.75-34.94 1.74-5.74 3.85-11.36 6.33-16.82 2.26-4.98 4.89-12.41 9.32-15.83 3.06-2.38 6.32-1.13 9.27.68 12.15 7.38 22.86 16.99 32.05 27.81 4.64 5.48 8.92 11.29 12.82 17.34.42.64.97 1.44 1.56 2.34z" transform="translate(-719 -771) translate(719 771)"/>
                <path d="M436.688 790.83c-11.91 1.92-24.49 5.28-36.37 3.24-6.31-1.08-9.48-5.38-10.92-10.34-3.97-13.7-1.54-29.28 1.34-45.08 3.08-16.87 6.06-33.91 11.99-50.11 3.88-10.59 8.85-23.46 15.65-32.24 5.44-7.02 11.17-12.7 18.39-13.99 15.59 5.55 28.92 17.76 42.24 29.84 15.19 13.77 30.33 27.84 43.22 44.01 4.67 5.85 9.31 12.01 13.54 18.56 2.79 4.27 5.91 9.99 2.33 13.49-9.63 9.41-19.17 18.78-35.43 24.81-21.23 7.86-43.59 14.22-65.98 17.81z" transform="translate(-719 -771) translate(719 771)"/>
                <path d="M415.272 818.35c-13.32 1.55-27.35 4.84-40.4 1.97-10.58-2.33-14.65-10.68-15.8-19.76-3.32-26.11 1.61-53.6 7.74-81.13 4.92-22 9.9-44.18 18.22-65.28 6.09-15.42 13.75-35.6 24.98-47.65 8.51-9.12 17.45-12.97 27.46-12.13 28.12 13.46 52.04 36 75.2 58.97 19.14 18.97 37.84 38.63 54.4 60.22 4.72 6.18 9.7 12.73 14.26 19.79 5.15 7.9 11.04 18.67 3.08 24.63-20.99 15.72-43.06 29.59-71.68 38.84-31.38 10.13-64.63 17.72-97.46 21.53z" transform="translate(-719 -771) translate(719 771)"/>
                <path d="M394.081 846.7c-14.7 1.28-30.17 4.28-44.41.69-14.82-3.73-19.8-15.95-20.69-29.2-2.61-38.44 4.54-77.96 14.15-117.14 6.66-27.18 13.75-54.44 24.45-80.46 8.31-20.25 18.59-47.8 34.3-63.06 11.57-11.24 24.21-14.87 36.53-10.29 43.05 16.02 75.41 54.04 108.17 88.12 23.17 24.1 45.42 49.39 65.58 76.44 4.81 6.46 10.08 13.44 14.98 20.99 7.52 11.54 16.14 27.4 3.83 35.79-32.39 22.08-66.93 40.52-107.93 52.86-41.53 12.49-85.65 21.46-128.96 25.26z" transform="translate(-719 -771) translate(719 771)"/>
                <path d="M373.007 874.981c-16.08 1.07-32.97 3.68-48.44-.57-19-5.22-24.93-21.23-25.56-38.63-1.87-50.77 7.38-102.37 20.55-153.18 8.39-32.36 17.63-64.68 30.67-95.63 10.56-25.06 23.45-60 43.64-78.46 14.62-13.38 30.56-14.99 45.59-8.46 55.7 24.23 98.91 71.97 141.15 117.27 27.24 29.24 53.03 60.09 76.74 92.64 4.92 6.76 10.48 14.16 15.71 22.23 9.87 15.16 21.25 36.11 4.6 46.93-43.82 28.47-90.8 51.51-144.2 66.89-51.67 14.87-106.65 25.39-160.45 28.97z" transform="translate(-719 -771) translate(719 771)"/>
                <path d="M352.01 903.389c-17.47.89-35.76 3.07-52.47-1.84-23.17-6.8-30.07-26.49-30.45-48.06-1.13-63.1 10.16-126.81 26.96-189.22 10.11-37.54 21.52-74.91 36.9-110.79 12.81-29.88 28.29-72.22 52.96-93.88 17.67-15.52 36.84-15.12 54.65-6.61 68.18 32.55 122.51 89.83 174.13 146.43 31.34 34.36 60.7 70.76 87.92 108.83 5.03 7.04 10.86 14.88 16.43 23.46 12.24 18.79 26.35 44.82 5.35 58.08-55.24 34.84-114.66 62.53-180.46 80.9-61.8 17.28-127.65 29.47-191.92 32.7z" transform="translate(-719 -771) translate(719 771)"/>
                <path d="M331.044 931.856c-18.86.7-38.54 2.44-56.48-3.12-27.33-8.43-35.21-31.75-35.34-57.49-.39-75.41 12.89-151.25 33.36-225.25 11.83-42.73 25.41-85.16 43.13-125.97 15.07-34.67 33.14-84.42 62.29-109.27 20.73-17.67 43.11-15.26 63.73-4.78 80.55 40.94 146.14 107.66 207.09 175.58 35.44 39.5 68.41 81.41 99.1 125.05 5.14 7.31 11.25 15.58 17.14 24.66 14.61 22.43 31.46 53.56 6.12 69.23-66.67 41.23-138.52 73.57-216.71 94.94-71.96 19.67-148.67 33.64-223.43 36.42z" transform="translate(-719 -771) translate(719 771)"/>
                <path d="M310.116 960.332c-20.24.54-41.3 1.81-60.51-4.38-31.45-10.13-40.34-37.02-40.211-66.92.351-87.73 15.591-175.71 39.761-261.29 13.54-47.94 29.3-95.4 49.36-141.14 17.32-39.49 37.98-96.65 71.62-124.69 23.77-19.81 49.34-15.39 72.79-2.93 92.87 49.36 169.8 125.46 240.06 204.73 39.56 44.63 76.15 92.03 110.27 141.25 5.27 7.6 11.65 16.31 17.88 25.9 16.96 26.04 36.55 62.26 6.86 80.37-78.09 47.62-162.36 84.61-252.97 108.96-82.1 22.08-169.68 37.89-254.91 40.14z" transform="translate(-719 -771) translate(719 771)"/>
                <path d="M289.198 988.809c-21.64.37-44.07 1.17-64.54-5.65-35.56-11.87-45.47-42.29-45.1-76.36 1.1-100.04 18.3-200.16 46.18-297.33 15.25-53.13 33.19-105.63 55.59-156.29 19.58-44.3 42.81-108.88 80.94-140.11 26.81-21.96 55.56-15.53 81.86-1.08 105.16 57.8 193.49 143.25 273.03 233.87 43.67 49.77 83.93 102.64 121.44 157.46 5.39 7.87 12.04 17.02 18.6 27.12 19.33 29.67 41.66 70.99 7.63 91.51-89.54 54.01-186.23 95.66-289.22 123-92.26 24.49-190.71 42.22-286.41 43.86z" transform="translate(-719 -771) translate(719 771)"/>
                <path d="M268.29 1017.256c-23.05.21-46.84.55-68.56-6.91-39.66-13.63-50.62-47.55-49.99-85.8 1.85-112.34 20.97-224.62 52.58-333.35 16.96-58.33 37.19-115.82 61.81-171.48 21.94-49.06 47.66-121.1 90.27-155.51 29.87-24.11 61.79-15.68 90.94.76 117.41 66.25 217.19 161.02 306 263.03 47.79 54.89 91.74 113.22 132.61 173.65 5.51 8.16 12.43 17.75 19.32 28.35 21.7 33.3 46.76 79.71 8.39 102.66-100.97 60.39-210.08 106.72-325.49 137.03-102.39 26.89-211.72 46.6-317.88 47.57z" transform="translate(-719 -771) translate(719 771)"/>
                <path d="M247.362 1045.7c-24.44.044-49.59-.106-72.59-8.196-43.75-15.4-55.67-52.81-54.86-95.22 2.81-124.66 23.64-249.1 58.98-369.39 18.67-63.55 41.06-126.08 68.04-186.64 24.18-53.88 52.49-133.33 99.6-170.92 32.91-26.26 68-15.84 100 2.6 129.65 74.69 240.91 178.78 338.96 292.17 51.92 60.03 99.59 123.77 143.8 189.87 5.64 8.42 12.82 18.45 20.04 29.56 24.06 36.93 51.9 88.49 9.14 113.81-112.29 66.94-233.92 117.78-361.73 151.05-112.55 29.31-232.75 51.04-349.38 51.305z" transform="translate(-719 -771) translate(719 771)"/>
                <path d="M226.454 1074.12c-25.84-.108-52.34-.728-76.62-9.468-47.81-17.21-60.82-58.07-59.75-104.65 3.51-136.96 26.31-273.57 65.39-405.42 20.38-68.75 44.94-136.32 74.27-201.82 26.44-58.69 57.28-145.63 108.93-186.33 35.91-28.46 74.21-15.98 109.07 4.45 141.87 83.15 264.64 196.53 371.94 321.33 56.03 65.16 107.45 134.31 154.97 206.06 5.76 8.69 13.2 19.17 20.76 30.79 26.42 40.56 56.99 97.2 9.9 124.95-123.75 73.28-257.72 129.11-398 165.08-122.63 31.95-253.78 55.51-380.86 55.028z" transform="translate(-719 -771) translate(719 771)"/>
                <path d="M205.546 1102.51c-27.24-.25-55.1-1.37-80.64-10.73-51.89-19.04-65.98-63.33-64.63-114.08 4.2-149.28 28.96-298.04 71.79-441.46 22.08-73.95 48.81-146.57 80.5-216.99 28.67-63.5 62.13-157.83 118.25-201.73 38.98-30.6 80.42-16.14 118.14 6.29 154.1 91.62 288.38 214.29 404.91 350.47 60.16 70.3 115.35 144.85 166.14 222.27 5.89 8.97 13.59 19.9 21.49 32.01 28.78 44.19 62.08 105.91 10.65 136.11-135.2 79.63-281.58 140.08-434.25 179.1-132.8 34.29-274.81 60.01-412.35 58.74z" transform="translate(-719 -771) translate(719 771)"/>
                <path d="M184.637 1130.899c-28.64-.4-57.84-1.99-84.67-12-55.94-20.86-71.13-68.6-69.51-123.51 4.88-161.59 31.45-322.57 78.2-477.5 23.7-79.18 52.68-156.8 86.72-232.15 30.92-68.32 66.99-170.05 127.59-217.14 42.03-32.74 86.61-16.3 127.21 8.13 166.3 100.08 312.32 231.86 437.87 379.62 64.38 75.35 123.27 155.37 177.32 238.48 6.02 9.24 13.98 20.6 22.2 33.24 31.15 47.81 67.18 114.6 11.43 147.24-146.67 85.97-305.47 151.06-470.52 193.13-142.97 36.62-295.85 64.55-443.84 62.46z" transform="translate(-719 -771) translate(719 771)"/>
                <path d="M1133.651 727.559c33.52 51.44 72.27 123.31 12.18 158.39-158.13 92.31-329.35 162.03-506.77 207.16-153.14 38.95-316.89 69.1-475.33 66.18-30.04-.56-60.6-2.63-88.69-13.27-59.99-22.72-76.29-73.86-74.4-132.94 5.58-173.91 34.27-347 84.61-513.54 25.5-84.36 56.55-167.05 92.95-247.32 33.16-73.13 71.85-182.25 136.91-232.55 45.09-34.87 92.82-16.46 136.27 9.97 178.51 108.55 335.87 249.79 470.85 408.78 68.4 80.57 131.21 165.87 188.5 254.68 6.14 9.52 14.36 21.32 22.92 34.46z" transform="translate(-719 -771) translate(719 771)"/>
            </g>
        </g>
    </g>
</svg>
